<svg width="12" height="14" viewBox="0 0 12 14" fill="none" xmlns="http://www.w3.org/2000/svg">
<path fill-rule="evenodd" clip-rule="evenodd" d="M9.49742 8.37675C9.79031 8.08385 10.2652 8.08385 10.5581 8.37675C10.851 8.66964 10.851 9.14452 10.5581 9.43741L7.33231 12.6632C5.65494 14.3405 2.93539 14.3405 1.25802 12.6632C-0.419342 10.9858 -0.419342 8.26627 1.25802 6.5889L6.68502 1.16191C7.90089 -0.053969 9.87222 -0.0539687 11.0881 1.16191C12.304 2.37778 12.304 4.34911 11.0878 5.56527L5.65519 10.992C4.90081 11.7464 3.67771 11.7464 2.92333 10.992C2.16894 10.2376 2.16894 9.01449 2.92364 8.2598L6.18964 4.99764C6.48271 4.70492 6.95758 4.7052 7.2503 4.99826C7.54302 5.29133 7.54274 5.7662 7.24968 6.05892C5.97957 7.32754 5.97957 7.32754 3.98399 9.32077C3.81539 9.48937 3.81539 9.76272 3.98399 9.93131C4.15258 10.0999 4.42594 10.0999 4.59482 9.93103L10.0274 4.50432C10.6575 3.87423 10.6575 2.85266 10.0274 2.22257C9.39734 1.59248 8.37577 1.59248 7.74568 2.22257L2.31869 7.64956C1.2271 8.74114 1.2271 10.5109 2.31869 11.6025C3.41026 12.6941 5.18007 12.6941 6.27165 11.6025L9.49742 8.37675Z" fill="#36AB80"/>
</svg>
