<svg width="20" height="21" viewBox="0 0 20 21" fill="none" xmlns="http://www.w3.org/2000/svg">
<path fill-rule="evenodd" clip-rule="evenodd" d="M13.382 15.4722C13.3179 15.0859 12.9827 13.2057 12.1571 10.8979C14.1885 10.5671 15.9479 11.1342 16.0779 11.1774C15.7981 12.9623 14.7941 14.5012 13.382 15.4722ZM9.86674 16.5657C8.34384 16.5657 6.94742 16.0146 5.85852 15.0974C5.94168 15.1662 5.99972 15.2094 5.99972 15.2094C5.99972 15.2094 7.20556 12.532 10.9366 11.2083C10.9504 11.203 10.9652 11.1995 10.979 11.195C11.8643 13.5365 12.229 15.4978 12.3226 16.0578C11.5681 16.3841 10.7373 16.5657 9.86674 16.5657ZM3.57504 10.1597C3.57504 10.0918 3.5785 10.0248 3.58024 9.95776C3.69198 9.96041 6.80015 10.0318 10.0391 9.04501C10.2193 9.40394 10.3917 9.76992 10.5494 10.1341C10.4662 10.1571 10.3839 10.1826 10.3016 10.2109C6.9067 11.3273 5.18456 14.4369 5.18456 14.4369L5.18716 14.4404C4.18489 13.3054 3.57504 11.8053 3.57504 10.1597ZM7.18218 4.36837C7.2662 4.48213 8.4296 6.08805 9.5185 8.05818C6.49782 8.87569 3.87563 8.84306 3.71018 8.84041C4.11819 6.85617 5.42712 5.21145 7.18218 4.36837ZM8.35943 3.94154L8.35857 3.9433C8.35857 3.9433 8.35077 3.94506 8.33951 3.94683C8.34644 3.94506 8.3525 3.94418 8.35943 3.94154ZM14.0214 5.35432C14.0058 5.37813 13.11 6.7671 10.7347 7.6728C9.6597 5.66121 8.47811 4.06324 8.38369 3.93625C8.85927 3.81895 9.35564 3.75546 9.86674 3.75546C11.4589 3.75546 12.9134 4.36043 14.0214 5.35432ZM16.1558 10.0962C16.0649 10.0759 13.9356 9.60942 11.7743 9.88633C11.7292 9.77698 11.685 9.66674 11.6383 9.5565C11.5074 9.24255 11.3662 8.93213 11.2198 8.627C13.7043 7.59431 14.7126 6.11009 14.7248 6.09246C15.6066 7.18335 16.1411 8.57673 16.1558 10.0962ZM17.0836 8.65081C16.9866 8.1693 16.8411 7.69396 16.6531 7.24067C16.4694 6.7962 16.2399 6.36761 15.9739 5.96723C15.7114 5.57038 15.4082 5.19646 15.0756 4.85782C14.7421 4.51829 14.3757 4.21051 13.985 3.94242C13.5917 3.6708 13.1707 3.43886 12.7341 3.25014C12.2888 3.05965 11.8228 2.91149 11.3498 2.8136C10.8647 2.71219 10.3657 2.66016 9.86674 2.66016C9.3669 2.66016 8.86793 2.71219 8.38282 2.8136C7.90984 2.91149 7.44379 3.05965 6.99853 3.25014C6.56193 3.43886 6.14092 3.6708 5.74677 3.94242C5.35695 4.21051 4.99052 4.51829 4.65701 4.85782C4.32436 5.19646 4.02203 5.57038 3.75869 5.96723C3.49274 6.36761 3.26318 6.7962 3.07953 7.24067C2.89069 7.69396 2.74602 8.1693 2.649 8.65081C2.55024 9.14378 2.5 9.65175 2.5 10.1597C2.5 10.6694 2.55024 11.1774 2.649 11.6713C2.74602 12.1528 2.89069 12.6272 3.07953 13.0796C3.26318 13.5241 3.49274 13.9545 3.75869 14.3548C4.02203 14.7517 4.32436 15.1239 4.65701 15.4643C4.99052 15.8029 5.35695 16.1098 5.74677 16.3788C6.14092 16.6495 6.56193 16.8823 6.99853 17.0702C7.44379 17.2624 7.90984 17.4088 8.38282 17.5067C8.86793 17.609 9.3669 17.6602 9.86674 17.6602C10.3657 17.6602 10.8647 17.609 11.3498 17.5067C11.8228 17.4088 12.2888 17.2624 12.7341 17.0702C13.1707 16.8823 13.5917 16.6495 13.985 16.3788C14.3757 16.1098 14.7421 15.8029 15.0756 15.4643C15.4082 15.1239 15.7114 14.7517 15.9739 14.3548C16.2399 13.9545 16.4694 13.5241 16.6531 13.0796C16.8411 12.6272 16.9866 12.1528 17.0836 11.6713C17.1824 11.1774 17.2326 10.6694 17.2326 10.1597C17.2326 9.65175 17.1824 9.14378 17.0836 8.65081Z" fill="black"/>
</svg>
