<svg width="16" height="13" viewBox="0 0 16 13" fill="none" xmlns="http://www.w3.org/2000/svg">
<path fill-rule="evenodd" clip-rule="evenodd" d="M7.99981 11.0289L12.5682 7.19336L13.2829 6.47862C13.7421 6.01973 14 5.3972 14 4.74808C14 4.09895 13.7421 3.47643 13.2829 3.01754C12.8236 2.55793 12.201 2.29999 11.5519 2.29999C10.9028 2.29999 10.2803 2.55793 9.82112 3.01729L7.99981 4.8386L6.1785 3.01729C5.22261 2.0614 3.67281 2.0614 2.71692 3.01729C1.76103 3.97318 1.76103 5.52298 2.71692 6.47887L3.43141 7.19336L7.99981 11.0289ZM7.99981 2.71728L8.76177 1.95532C9.50186 1.21557 10.5055 0.799988 11.5519 0.799988C12.599 0.799988 13.6031 1.21606 14.3434 1.95663C15.0839 2.69685 15.5 3.70101 15.5 4.74808C15.5 5.79515 15.0839 6.79931 14.3434 7.53953L13.5827 8.30018L8.00463 12.9834C8.00277 12.985 6.1402 11.4239 2.41691 8.30018L1.65626 7.53953C0.114581 5.99785 0.114581 3.4983 1.65626 1.95663C3.19793 0.414953 5.69748 0.414953 7.23916 1.95663L7.99981 2.71728Z" fill="black"/>
</svg>
