<svg width="384" height="506" viewBox="0 0 384 506" fill="none" xmlns="http://www.w3.org/2000/svg">
<rect opacity="0.1" x="25" y="17" width="350" height="350" rx="175" stroke="black" stroke-width="2"/>
<rect opacity="0.2" x="57" y="49" width="286" height="286" rx="143" stroke="black" stroke-width="2"/>
<rect opacity="0.3" x="89" y="81" width="222" height="222" rx="111" stroke="black" stroke-width="2"/>
<rect opacity="0.4" x="121" y="113" width="158" height="158" rx="79" stroke="black" stroke-width="2"/>
<g filter="url(#filter0_dd_2_227)">
<rect x="280" y="264" width="96" height="40" rx="8" fill="#0284FE"/>
<path d="M310.092 286.437C310.092 286.231 310.06 286.049 309.996 285.89C309.937 285.73 309.83 285.584 309.675 285.452C309.52 285.32 309.301 285.192 309.018 285.069C308.74 284.942 308.385 284.812 307.952 284.68C307.478 284.534 307.041 284.372 306.64 284.194C306.243 284.012 305.897 283.802 305.6 283.565C305.304 283.324 305.074 283.048 304.91 282.738C304.746 282.424 304.664 282.062 304.664 281.651C304.664 281.246 304.748 280.877 304.917 280.544C305.09 280.211 305.334 279.924 305.648 279.683C305.967 279.437 306.343 279.247 306.776 279.115C307.209 278.979 307.688 278.91 308.212 278.91C308.95 278.91 309.586 279.047 310.119 279.32C310.657 279.594 311.069 279.961 311.356 280.421C311.648 280.881 311.794 281.389 311.794 281.945H310.092C310.092 281.617 310.021 281.328 309.88 281.077C309.743 280.822 309.533 280.621 309.251 280.476C308.973 280.33 308.62 280.257 308.191 280.257C307.786 280.257 307.448 280.318 307.18 280.441C306.911 280.564 306.71 280.731 306.578 280.94C306.446 281.15 306.38 281.387 306.38 281.651C306.38 281.838 306.423 282.009 306.51 282.164C306.596 282.314 306.728 282.456 306.906 282.588C307.084 282.715 307.307 282.836 307.576 282.95C307.845 283.064 308.162 283.174 308.526 283.278C309.078 283.442 309.558 283.625 309.969 283.825C310.379 284.021 310.721 284.244 310.994 284.495C311.267 284.746 311.473 285.031 311.609 285.35C311.746 285.664 311.814 286.022 311.814 286.423C311.814 286.842 311.73 287.22 311.561 287.558C311.393 287.89 311.151 288.175 310.837 288.412C310.527 288.645 310.153 288.825 309.716 288.952C309.283 289.075 308.8 289.137 308.266 289.137C307.788 289.137 307.316 289.073 306.851 288.945C306.391 288.818 305.972 288.624 305.594 288.364C305.215 288.1 304.915 287.772 304.691 287.38C304.468 286.983 304.356 286.521 304.356 285.992H306.072C306.072 286.316 306.127 286.591 306.236 286.819C306.35 287.047 306.507 287.234 306.708 287.38C306.908 287.521 307.141 287.626 307.405 287.694C307.674 287.763 307.961 287.797 308.266 287.797C308.668 287.797 309.002 287.74 309.271 287.626C309.545 287.512 309.75 287.353 309.887 287.147C310.023 286.942 310.092 286.705 310.092 286.437ZM314.932 281.604V289H313.277V281.604H314.932ZM313.168 279.662C313.168 279.411 313.25 279.204 313.414 279.04C313.583 278.871 313.815 278.787 314.111 278.787C314.403 278.787 314.633 278.871 314.802 279.04C314.97 279.204 315.055 279.411 315.055 279.662C315.055 279.908 314.97 280.113 314.802 280.277C314.633 280.441 314.403 280.523 314.111 280.523C313.815 280.523 313.583 280.441 313.414 280.277C313.25 280.113 313.168 279.908 313.168 279.662ZM321.474 281.604H322.971V288.795C322.971 289.46 322.829 290.025 322.547 290.49C322.264 290.955 321.87 291.308 321.364 291.55C320.858 291.796 320.273 291.919 319.607 291.919C319.325 291.919 319.01 291.878 318.664 291.796C318.322 291.714 317.989 291.582 317.666 291.399C317.347 291.222 317.08 290.987 316.866 290.695L317.639 289.725C317.903 290.039 318.195 290.269 318.514 290.415C318.833 290.561 319.168 290.634 319.518 290.634C319.897 290.634 320.218 290.563 320.482 290.422C320.751 290.285 320.959 290.082 321.104 289.813C321.25 289.545 321.323 289.216 321.323 288.829V283.278L321.474 281.604ZM316.449 285.384V285.24C316.449 284.68 316.517 284.169 316.654 283.709C316.791 283.244 316.987 282.845 317.242 282.513C317.497 282.175 317.807 281.918 318.172 281.74C318.536 281.558 318.949 281.467 319.409 281.467C319.888 281.467 320.295 281.553 320.633 281.727C320.974 281.9 321.259 282.148 321.487 282.472C321.715 282.791 321.893 283.174 322.02 283.62C322.153 284.062 322.251 284.554 322.314 285.097V285.555C322.255 286.083 322.155 286.566 322.014 287.004C321.872 287.441 321.685 287.82 321.453 288.139C321.221 288.458 320.933 288.704 320.592 288.877C320.254 289.05 319.856 289.137 319.395 289.137C318.944 289.137 318.536 289.043 318.172 288.856C317.812 288.67 317.502 288.408 317.242 288.07C316.987 287.733 316.791 287.337 316.654 286.881C316.517 286.421 316.449 285.922 316.449 285.384ZM318.097 285.24V285.384C318.097 285.721 318.128 286.035 318.192 286.327C318.261 286.619 318.363 286.876 318.5 287.1C318.641 287.318 318.819 287.492 319.033 287.619C319.252 287.742 319.509 287.804 319.806 287.804C320.193 287.804 320.51 287.722 320.756 287.558C321.006 287.394 321.198 287.173 321.33 286.895C321.467 286.612 321.562 286.298 321.617 285.951V284.714C321.59 284.445 321.533 284.194 321.446 283.962C321.364 283.729 321.252 283.527 321.111 283.354C320.97 283.176 320.792 283.039 320.578 282.943C320.364 282.843 320.111 282.793 319.819 282.793C319.523 282.793 319.266 282.857 319.047 282.984C318.828 283.112 318.648 283.287 318.507 283.511C318.37 283.734 318.267 283.994 318.199 284.29C318.131 284.586 318.097 284.903 318.097 285.24ZM326.313 283.183V289H324.666V281.604H326.218L326.313 283.183ZM326.019 285.028L325.486 285.021C325.491 284.497 325.564 284.017 325.705 283.579C325.851 283.142 326.051 282.766 326.307 282.451C326.566 282.137 326.876 281.895 327.236 281.727C327.596 281.553 327.997 281.467 328.439 281.467C328.795 281.467 329.116 281.517 329.403 281.617C329.695 281.713 329.943 281.87 330.148 282.089C330.358 282.308 330.517 282.592 330.627 282.943C330.736 283.29 330.791 283.716 330.791 284.222V289H329.137V284.215C329.137 283.859 329.084 283.579 328.979 283.374C328.879 283.164 328.731 283.016 328.535 282.93C328.344 282.839 328.104 282.793 327.817 282.793C327.535 282.793 327.282 282.852 327.058 282.971C326.835 283.089 326.646 283.251 326.491 283.456C326.341 283.661 326.224 283.898 326.142 284.167C326.06 284.436 326.019 284.723 326.019 285.028ZM341.708 279.047H343.417V285.698C343.417 286.455 343.253 287.088 342.925 287.599C342.597 288.109 342.15 288.494 341.585 288.754C341.024 289.009 340.398 289.137 339.705 289.137C338.989 289.137 338.351 289.009 337.791 288.754C337.23 288.494 336.788 288.109 336.465 287.599C336.146 287.088 335.986 286.455 335.986 285.698V279.047H337.695V285.698C337.695 286.177 337.777 286.571 337.941 286.881C338.105 287.186 338.338 287.412 338.639 287.558C338.939 287.703 339.295 287.776 339.705 287.776C340.115 287.776 340.468 287.703 340.765 287.558C341.065 287.412 341.298 287.186 341.462 286.881C341.626 286.571 341.708 286.177 341.708 285.698V279.047ZM346.773 283.025V291.844H345.126V281.604H346.643L346.773 283.025ZM351.593 285.233V285.377C351.593 285.915 351.529 286.414 351.401 286.874C351.278 287.33 351.094 287.729 350.848 288.07C350.606 288.408 350.307 288.67 349.952 288.856C349.597 289.043 349.186 289.137 348.722 289.137C348.261 289.137 347.858 289.052 347.512 288.884C347.17 288.711 346.88 288.467 346.643 288.152C346.406 287.838 346.215 287.469 346.069 287.045C345.928 286.617 345.828 286.147 345.768 285.637V285.083C345.828 284.541 345.928 284.049 346.069 283.606C346.215 283.164 346.406 282.784 346.643 282.465C346.88 282.146 347.17 281.9 347.512 281.727C347.853 281.553 348.252 281.467 348.708 281.467C349.173 281.467 349.585 281.558 349.945 281.74C350.305 281.918 350.608 282.173 350.854 282.506C351.1 282.834 351.285 283.23 351.408 283.695C351.531 284.156 351.593 284.668 351.593 285.233ZM349.945 285.377V285.233C349.945 284.892 349.913 284.575 349.849 284.283C349.786 283.987 349.685 283.727 349.549 283.504C349.412 283.281 349.237 283.107 349.022 282.984C348.813 282.857 348.56 282.793 348.264 282.793C347.972 282.793 347.721 282.843 347.512 282.943C347.302 283.039 347.127 283.174 346.985 283.347C346.844 283.52 346.735 283.723 346.657 283.955C346.58 284.183 346.525 284.431 346.493 284.7V286.026C346.548 286.354 346.641 286.655 346.773 286.929C346.905 287.202 347.092 287.421 347.334 287.585C347.58 287.744 347.894 287.824 348.277 287.824C348.573 287.824 348.826 287.76 349.036 287.633C349.246 287.505 349.417 287.33 349.549 287.106C349.685 286.879 349.786 286.617 349.849 286.32C349.913 286.024 349.945 285.71 349.945 285.377Z" fill="white"/>
</g>
<g filter="url(#filter1_dd_2_227)">
<rect x="40" y="120" width="40" height="40" rx="20" fill="#F7AF22"/>
<path fill-rule="evenodd" clip-rule="evenodd" d="M59.25 139.25V135.5C59.25 135.086 59.5858 134.75 60 134.75C60.4142 134.75 60.75 135.086 60.75 135.5V139.25H64.5C64.9142 139.25 65.25 139.586 65.25 140C65.25 140.414 64.9142 140.75 64.5 140.75H60.75V144.5C60.75 144.914 60.4142 145.25 60 145.25C59.5858 145.25 59.25 144.914 59.25 144.5V140.75H55.5C55.0858 140.75 54.75 140.414 54.75 140C54.75 139.586 55.0858 139.25 55.5 139.25H59.25Z" fill="white"/>
</g>
<path d="M93.8458 330H106.154C107.491 330 107.976 330.139 108.465 330.401C108.954 330.662 109.338 331.046 109.599 331.535C109.861 332.024 110 332.509 110 333.846V346.154C110 347.491 109.861 347.976 109.599 348.465C109.338 348.954 108.954 349.338 108.465 349.599C107.976 349.861 107.491 350 106.154 350H93.8458C92.5085 350 92.0236 349.861 91.5347 349.599C91.0458 349.338 90.6622 348.954 90.4007 348.465C90.1392 347.976 90 347.491 90 346.154V333.846C90 332.509 90.1392 332.024 90.4007 331.535C90.6622 331.046 91.0458 330.662 91.5347 330.401C92.0236 330.139 92.5085 330 93.8458 330ZM103.314 336.793L98.0212 342.086L96.2071 340.272C95.8166 339.881 95.1834 339.881 94.7929 340.272C94.4024 340.662 94.4024 341.295 94.7929 341.686L97.3141 344.207C97.7047 344.598 98.3378 344.598 98.7284 344.207L104.728 338.207C105.119 337.817 105.119 337.183 104.728 336.793C104.338 336.402 103.705 336.402 103.314 336.793Z" fill="#F4541D"/>
<g filter="url(#filter2_dd_2_227)">
<rect x="256" y="48" width="40" height="24" rx="12" fill="#36AB80"/>
<rect x="276.81" y="52.8" width="14.39" height="14.39" rx="7.195" fill="white"/>
</g>
<g clip-path="url(#clip0_2_227)">
<g clip-path="url(#clip1_2_227)">
<g clip-path="url(#clip2_2_227)">
<path d="M220.621 181.956C219.94 181.722 219.253 181.506 218.561 181.307C218.677 180.832 218.784 180.362 218.879 179.901C220.439 172.331 219.419 166.232 215.937 164.224C212.598 162.299 207.138 164.307 201.623 169.106C201.08 169.58 200.548 170.067 200.029 170.568C199.682 170.235 199.329 169.909 198.969 169.589C193.19 164.457 187.397 162.294 183.918 164.308C180.583 166.239 179.595 171.972 180.999 179.147C181.138 179.858 181.296 180.564 181.472 181.267C180.652 181.5 179.86 181.748 179.103 182.012C172.327 184.374 168 188.077 168 191.917C168 195.883 172.646 199.861 179.703 202.274C180.275 202.468 180.852 202.649 181.433 202.815C181.245 203.572 181.077 204.333 180.931 205.099C179.592 212.149 180.637 217.747 183.964 219.666C187.4 221.647 193.167 219.611 198.782 214.702C199.238 214.303 199.683 213.893 200.118 213.471C200.68 214.014 201.257 214.54 201.848 215.05C207.287 219.73 212.66 221.62 215.983 219.696C219.416 217.709 220.532 211.696 219.083 204.379C218.969 203.806 218.841 203.236 218.699 202.669C219.104 202.549 219.502 202.425 219.889 202.297C227.226 199.866 232 195.936 232 191.917C232 188.063 227.533 184.335 220.621 181.956ZM219.029 199.702C218.68 199.818 218.32 199.929 217.954 200.038C217.144 197.474 216.051 194.747 214.714 191.93C215.99 189.18 217.041 186.488 217.828 183.941C218.483 184.13 219.118 184.33 219.731 184.541C225.653 186.58 229.266 189.594 229.266 191.917C229.266 194.391 225.364 197.603 219.029 199.702ZM216.401 204.91C217.042 208.145 217.133 211.07 216.708 213.357C216.327 215.412 215.561 216.782 214.613 217.33C212.596 218.498 208.283 216.98 203.631 212.977C203.081 212.503 202.545 212.014 202.022 211.51C203.826 209.538 205.628 207.245 207.387 204.698C210.481 204.424 213.404 203.975 216.055 203.362C216.185 203.889 216.301 204.405 216.401 204.91ZM189.819 217.129C187.848 217.824 186.279 217.844 185.33 217.297C183.311 216.133 182.472 211.638 183.617 205.609C183.753 204.897 183.909 204.188 184.084 203.485C186.706 204.065 189.608 204.482 192.709 204.733C194.48 207.225 196.334 209.515 198.203 211.521C197.806 211.905 197.399 212.279 196.983 212.644C194.5 214.814 192.012 216.354 189.819 217.129ZM180.587 199.687C177.467 198.62 174.89 197.234 173.123 195.721C171.536 194.362 170.734 193.012 170.734 191.917C170.734 189.586 174.208 186.614 180.003 184.594C180.707 184.349 181.443 184.117 182.206 183.9C183.007 186.505 184.058 189.229 185.326 191.983C184.041 194.778 182.976 197.546 182.167 200.181C181.637 200.03 181.11 199.865 180.587 199.687ZM183.682 178.622C182.479 172.475 183.278 167.838 185.288 166.674C187.429 165.435 192.164 167.202 197.154 171.633C197.479 171.923 197.8 172.218 198.114 172.519C196.255 174.516 194.417 176.789 192.662 179.266C189.652 179.545 186.771 179.993 184.122 180.594C183.959 179.94 183.812 179.283 183.682 178.622ZM211.289 185.439C210.663 184.358 210.014 183.291 209.342 182.238C211.384 182.496 213.341 182.839 215.178 183.258C214.627 185.026 213.939 186.874 213.13 188.769C212.538 187.647 211.925 186.537 211.289 185.439ZM200.031 174.473C201.292 175.84 202.555 177.365 203.797 179.02C201.277 178.901 198.753 178.9 196.233 179.018C197.476 177.379 198.75 175.855 200.031 174.473ZM188.701 185.457C188.073 186.546 187.47 187.65 186.894 188.767C186.098 186.879 185.417 185.022 184.86 183.229C186.686 182.82 188.634 182.486 190.663 182.233C189.983 183.292 189.329 184.367 188.701 185.457ZM190.721 201.795C188.625 201.561 186.648 201.245 184.823 200.847C185.388 199.022 186.084 197.126 186.897 195.197C187.476 196.315 188.081 197.419 188.711 198.509C189.36 199.629 190.031 200.726 190.721 201.795ZM200.106 209.553C198.81 208.155 197.518 206.608 196.256 204.945C197.481 204.993 198.73 205.017 200 205.017C201.305 205.017 202.594 204.988 203.863 204.931C202.617 206.625 201.359 208.174 200.106 209.553ZM213.156 195.099C214.011 197.049 214.732 198.935 215.305 200.729C213.449 201.152 211.446 201.493 209.335 201.746C210.011 200.674 210.666 199.588 211.299 198.49C211.943 197.373 212.562 196.243 213.156 195.099ZM208.931 197.124C207.962 198.808 206.938 200.46 205.861 202.078C203.91 202.216 201.955 202.284 200 202.283C198.008 202.283 196.071 202.221 194.205 202.1C193.101 200.487 192.057 198.832 191.077 197.139C190.102 195.455 189.191 193.735 188.347 191.982C189.189 190.229 190.097 188.508 191.069 186.823L191.069 186.823C192.04 185.138 193.076 183.49 194.172 181.883C196.076 181.739 198.027 181.664 200 181.664C201.981 181.664 203.936 181.74 205.839 181.885C206.924 183.489 207.953 185.131 208.922 186.808C209.897 188.49 210.818 190.202 211.681 191.943C210.826 193.702 209.909 195.43 208.931 197.124ZM214.571 166.593C216.714 167.829 217.548 172.813 216.201 179.349C216.115 179.766 216.019 180.191 215.914 180.622C213.258 180.009 210.375 179.553 207.356 179.27C205.598 176.766 203.776 174.489 201.946 172.518C202.426 172.056 202.916 171.606 203.418 171.168C208.143 167.056 212.559 165.433 214.571 166.593ZM200 186.202C203.156 186.202 205.715 188.761 205.715 191.917C205.715 195.073 203.156 197.632 200 197.632C196.844 197.632 194.285 195.073 194.285 191.917C194.285 188.761 196.844 186.202 200 186.202Z" fill="black"/>
</g>
</g>
</g>
<defs>
<filter id="filter0_dd_2_227" x="275" y="263" width="106" height="52" filterUnits="userSpaceOnUse" color-interpolation-filters="sRGB">
<feFlood flood-opacity="0" result="BackgroundImageFix"/>
<feColorMatrix in="SourceAlpha" type="matrix" values="0 0 0 0 0 0 0 0 0 0 0 0 0 0 0 0 0 0 127 0" result="hardAlpha"/>
<feMorphology radius="1" operator="erode" in="SourceAlpha" result="effect1_dropShadow_2_227"/>
<feOffset dy="6"/>
<feGaussianBlur stdDeviation="3"/>
<feComposite in2="hardAlpha" operator="out"/>
<feColorMatrix type="matrix" values="0 0 0 0 0.0313726 0 0 0 0 0.0431373 0 0 0 0 0.054902 0 0 0 0.1 0"/>
<feBlend mode="normal" in2="BackgroundImageFix" result="effect1_dropShadow_2_227"/>
<feColorMatrix in="SourceAlpha" type="matrix" values="0 0 0 0 0 0 0 0 0 0 0 0 0 0 0 0 0 0 127 0" result="hardAlpha"/>
<feOffset/>
<feGaussianBlur stdDeviation="0.5"/>
<feComposite in2="hardAlpha" operator="out"/>
<feColorMatrix type="matrix" values="0 0 0 0 0.0313726 0 0 0 0 0.0431373 0 0 0 0 0.054902 0 0 0 0.06 0"/>
<feBlend mode="normal" in2="effect1_dropShadow_2_227" result="effect2_dropShadow_2_227"/>
<feBlend mode="normal" in="SourceGraphic" in2="effect2_dropShadow_2_227" result="shape"/>
</filter>
<filter id="filter1_dd_2_227" x="35" y="119" width="50" height="52" filterUnits="userSpaceOnUse" color-interpolation-filters="sRGB">
<feFlood flood-opacity="0" result="BackgroundImageFix"/>
<feColorMatrix in="SourceAlpha" type="matrix" values="0 0 0 0 0 0 0 0 0 0 0 0 0 0 0 0 0 0 127 0" result="hardAlpha"/>
<feMorphology radius="1" operator="erode" in="SourceAlpha" result="effect1_dropShadow_2_227"/>
<feOffset dy="6"/>
<feGaussianBlur stdDeviation="3"/>
<feComposite in2="hardAlpha" operator="out"/>
<feColorMatrix type="matrix" values="0 0 0 0 0.0313726 0 0 0 0 0.0431373 0 0 0 0 0.054902 0 0 0 0.1 0"/>
<feBlend mode="normal" in2="BackgroundImageFix" result="effect1_dropShadow_2_227"/>
<feColorMatrix in="SourceAlpha" type="matrix" values="0 0 0 0 0 0 0 0 0 0 0 0 0 0 0 0 0 0 127 0" result="hardAlpha"/>
<feOffset/>
<feGaussianBlur stdDeviation="0.5"/>
<feComposite in2="hardAlpha" operator="out"/>
<feColorMatrix type="matrix" values="0 0 0 0 0.0313726 0 0 0 0 0.0431373 0 0 0 0 0.054902 0 0 0 0.06 0"/>
<feBlend mode="normal" in2="effect1_dropShadow_2_227" result="effect2_dropShadow_2_227"/>
<feBlend mode="normal" in="SourceGraphic" in2="effect2_dropShadow_2_227" result="shape"/>
</filter>
<filter id="filter2_dd_2_227" x="241" y="47" width="70" height="56" filterUnits="userSpaceOnUse" color-interpolation-filters="sRGB">
<feFlood flood-opacity="0" result="BackgroundImageFix"/>
<feColorMatrix in="SourceAlpha" type="matrix" values="0 0 0 0 0 0 0 0 0 0 0 0 0 0 0 0 0 0 127 0" result="hardAlpha"/>
<feMorphology radius="1" operator="erode" in="SourceAlpha" result="effect1_dropShadow_2_227"/>
<feOffset dy="16"/>
<feGaussianBlur stdDeviation="8"/>
<feComposite in2="hardAlpha" operator="out"/>
<feColorMatrix type="matrix" values="0 0 0 0 0.0313726 0 0 0 0 0.0431373 0 0 0 0 0.054902 0 0 0 0.1 0"/>
<feBlend mode="normal" in2="BackgroundImageFix" result="effect1_dropShadow_2_227"/>
<feColorMatrix in="SourceAlpha" type="matrix" values="0 0 0 0 0 0 0 0 0 0 0 0 0 0 0 0 0 0 127 0" result="hardAlpha"/>
<feOffset/>
<feGaussianBlur stdDeviation="0.5"/>
<feComposite in2="hardAlpha" operator="out"/>
<feColorMatrix type="matrix" values="0 0 0 0 0.0313726 0 0 0 0 0.0431373 0 0 0 0 0.054902 0 0 0 0.06 0"/>
<feBlend mode="normal" in2="effect1_dropShadow_2_227" result="effect2_dropShadow_2_227"/>
<feBlend mode="normal" in="SourceGraphic" in2="effect2_dropShadow_2_227" result="shape"/>
</filter>
<clipPath id="clip0_2_227">
<rect width="64" height="57" fill="white" transform="translate(168 163.5)"/>
</clipPath>
<clipPath id="clip1_2_227">
<rect width="64" height="57" fill="white" transform="translate(168 163.5)"/>
</clipPath>
<clipPath id="clip2_2_227">
<rect width="64" height="57" fill="white" transform="translate(168 163.5)"/>
</clipPath>
</defs>
</svg>
