<svg width="16" height="16" viewBox="0 0 16 16" fill="none" xmlns="http://www.w3.org/2000/svg">
<path fill-rule="evenodd" clip-rule="evenodd" d="M7.25 8.43934V1.25C7.25 0.835786 7.58579 0.5 8 0.5C8.41421 0.5 8.75 0.835786 8.75 1.25V8.43934L11.2197 5.96967C11.5126 5.67678 11.9874 5.67678 12.2803 5.96967C12.5732 6.26256 12.5732 6.73744 12.2803 7.03033L8.53033 10.7803C8.23744 11.0732 7.76256 11.0732 7.46967 10.7803L3.71967 7.03033C3.42678 6.73744 3.42678 6.26256 3.71967 5.96967C4.01256 5.67678 4.48744 5.67678 4.78033 5.96967L7.25 8.43934ZM14 11C14 10.5858 14.3358 10.25 14.75 10.25C15.1642 10.25 15.5 10.5858 15.5 11V13.625C15.5 14.6605 14.6605 15.5 13.625 15.5H2.375C1.33947 15.5 0.5 14.6605 0.5 13.625V11C0.5 10.5858 0.835786 10.25 1.25 10.25C1.66421 10.25 2 10.5858 2 11V13.625C2 13.8321 2.16789 14 2.375 14H13.625C13.8321 14 14 13.8321 14 13.625V11Z" fill="#0284FE"/>
</svg>
