<svg width="18" height="12" viewBox="0 0 18 12" fill="none" xmlns="http://www.w3.org/2000/svg">
<path fill-rule="evenodd" clip-rule="evenodd" d="M9 10.5C11.979 10.5 14.2237 8.88331 15.6071 6C14.2237 3.11669 11.979 1.5 9 1.5C6.02096 1.5 3.77629 3.11669 2.39289 6C3.77629 8.88331 6.02096 10.5 9 10.5ZM0.75 6C2.17725 2.57922 4.875 0 9 0C13.125 0 15.8228 2.57922 17.25 6C15.8228 9.42078 13.125 12 9 12C4.875 12 2.17725 9.42078 0.75 6ZM7.5 6C7.5 5.16843 8.16843 4.5 9 4.5C9.83157 4.5 10.5 5.16843 10.5 6C10.5 6.83157 9.83157 7.5 9 7.5C8.16843 7.5 7.5 6.83157 7.5 6ZM6 6C6 7.66 7.34 9 9 9C10.66 9 12 7.66 12 6C12 4.34 10.66 3 9 3C7.34 3 6 4.34 6 6Z" fill="#A7AAB0"/>
</svg>
