<svg width="16" height="16" viewBox="0 0 16 16" fill="none" xmlns="http://www.w3.org/2000/svg">
<path d="M14.8053 4.36631C14.1197 3.19163 13.1898 2.26163 12.0152 1.5761C10.8404 0.890544 9.55794 0.547852 8.16682 0.547852C6.77587 0.547852 5.49297 0.890649 4.31846 1.5761C3.14378 2.26159 2.21385 3.19163 1.52825 4.36631C0.842762 5.54096 0.5 6.82369 0.5 8.21446C0.5 9.88509 0.987413 11.3874 1.96248 12.7217C2.93745 14.0561 4.19696 14.9794 5.74091 15.4918C5.92063 15.5252 6.05367 15.5017 6.14017 15.422C6.22671 15.3423 6.26993 15.2423 6.26993 15.1227C6.26993 15.1027 6.26822 14.9231 6.26489 14.5836C6.26147 14.2441 6.25986 13.948 6.25986 13.6953L6.03024 13.735C5.88385 13.7618 5.69916 13.7732 5.47619 13.77C5.25332 13.7669 5.02196 13.7435 4.78241 13.7001C4.54276 13.657 4.31986 13.5572 4.11353 13.4008C3.90731 13.2444 3.76091 13.0397 3.67437 12.787L3.57455 12.5573C3.50801 12.4043 3.40325 12.2344 3.26014 12.0482C3.11703 11.8618 2.97231 11.7354 2.82591 11.6689L2.75601 11.6189C2.70944 11.5856 2.66622 11.5455 2.62626 11.499C2.58633 11.4524 2.55643 11.4059 2.53647 11.3592C2.51647 11.3125 2.53304 11.2743 2.58636 11.2442C2.63969 11.2142 2.73605 11.1996 2.87587 11.1996L3.07545 11.2294C3.20857 11.2561 3.37322 11.3358 3.56962 11.469C3.76591 11.602 3.92727 11.7751 4.05374 11.9879C4.20689 12.2609 4.3914 12.4688 4.6078 12.6119C4.82402 12.7551 5.04203 12.8265 5.26161 12.8265C5.48119 12.8265 5.67084 12.8098 5.83063 12.7767C5.99024 12.7434 6.14 12.6934 6.27982 12.6269C6.33972 12.1808 6.5028 11.8381 6.76892 11.5986C6.38962 11.5587 6.0486 11.4987 5.7457 11.4189C5.44297 11.3389 5.13014 11.2092 4.80741 11.0294C4.48451 10.8497 4.21664 10.6267 4.00374 10.3606C3.7908 10.0944 3.61605 9.74488 3.47972 9.3124C3.34332 8.87974 3.2751 8.38065 3.2751 7.81498C3.2751 7.00956 3.53804 6.32418 4.06381 5.75845C3.81752 5.15292 3.84077 4.47411 4.13364 3.72208C4.32664 3.66212 4.61287 3.70712 4.99217 3.8568C5.37154 4.00656 5.6493 4.13484 5.82573 4.24121C6.00217 4.34754 6.14353 4.43764 6.25003 4.51072C6.86909 4.33775 7.50794 4.25124 8.16675 4.25124C8.82556 4.25124 9.46455 4.33775 10.0836 4.51072L10.463 4.27124C10.7224 4.11145 11.0287 3.96502 11.3812 3.83191C11.734 3.69887 12.0037 3.66222 12.1901 3.72219C12.4895 4.47425 12.5162 5.15303 12.2698 5.75855C12.7955 6.32429 13.0586 7.00984 13.0586 7.81509C13.0586 8.38075 12.9901 8.88142 12.8539 9.3174C12.7176 9.75344 12.5413 10.1026 12.3251 10.3656C12.1086 10.6286 11.839 10.8499 11.5163 11.0295C11.1935 11.2092 10.8806 11.3389 10.5778 11.4188C10.275 11.4988 9.93395 11.5588 9.55465 11.5988C9.90059 11.8981 10.0736 12.3707 10.0736 13.0162V15.1224C10.0736 15.242 10.1152 15.3419 10.1985 15.4218C10.2817 15.5015 10.413 15.5249 10.5928 15.4915C12.1369 14.9792 13.3964 14.0558 14.3714 12.7214C15.3462 11.3871 15.8338 9.88481 15.8338 8.21418C15.8334 6.82359 15.4905 5.54096 14.8053 4.36631Z" fill="black"/>
</svg>
