<svg width="16" height="12" viewBox="0 0 16 12" fill="none" xmlns="http://www.w3.org/2000/svg">
<path fill-rule="evenodd" clip-rule="evenodd" d="M15.5001 1.48837C15.5002 1.49567 15.5002 1.50296 15.5001 1.51025V10.875C15.5001 11.4963 14.9964 12 14.3751 12H1.62508C1.00376 12 0.50008 11.4963 0.50008 10.875V1.51025C0.499974 1.50296 0.499973 1.49567 0.50008 1.48837V1.125C0.50008 0.50368 1.00376 0 1.62508 0H14.3751C14.9964 0 15.5001 0.50368 15.5001 1.125V1.48837ZM2.60216 1.5L8.00008 5.09861L13.398 1.5H2.60216ZM14.0001 2.90139L8.41611 6.62404C8.16418 6.79199 7.83598 6.79199 7.58405 6.62404L2.00008 2.90139V10.5H14.0001V2.90139Z" fill="#A7AAB0"/>
</svg>
