<svg width="45" height="41" viewBox="0 0 45 41" fill="none" xmlns="http://www.w3.org/2000/svg">
<g clip-path="url(#clip0_2_507)">
<g clip-path="url(#clip1_2_507)">
<path d="M36.1143 13.0946C40.937 14.7548 43.9546 17.3614 43.9546 20.1245C43.9546 23.005 40.7219 25.7448 35.6262 27.433C35.505 27.4732 35.3806 27.5132 35.2524 27.5534C35.3074 27.7919 35.3588 28.0313 35.4066 28.2717C36.4109 33.3443 35.5957 37.4692 33.1315 38.8958C30.7458 40.2769 27.0321 39.0325 23.2443 35.7732C22.9607 35.5286 22.6819 35.2783 22.4083 35.0225C22.22 35.1984 22.0288 35.3713 21.8348 35.5413C17.9416 38.9447 13.9608 40.2984 11.4943 38.876C9.10627 37.4987 8.32978 33.6599 9.26181 28.7508C9.33192 28.3834 9.40935 28.0175 9.49403 27.6533C9.24833 27.5781 9.00374 27.4992 8.7602 27.4163C3.86683 25.7437 0.705421 22.9717 0.705421 20.1245C0.705421 17.3679 3.64312 14.7773 8.36101 13.1324C8.73197 13.0031 9.11801 12.8784 9.51885 12.7583C9.44256 12.4313 9.37201 12.1029 9.30718 11.7731C8.32772 6.76805 9.07178 2.85052 11.4632 1.46619C13.956 0.0230473 17.9467 1.4481 21.9614 5.01264C22.0915 5.1284 22.2204 5.24545 22.3482 5.36377C22.5928 5.13496 22.8415 4.9104 23.0942 4.69008C26.941 1.34217 30.7066 0.0303276 33.1002 1.41042C35.5958 2.84943 36.3542 7.01841 35.2711 12.2765C35.2369 12.4424 35.2 12.612 35.1603 12.7857C35.48 12.8832 35.7981 12.9861 36.1143 13.0946ZM41.2062 20.1245C41.2062 18.8079 38.8438 16.941 35.2204 15.6935C34.9635 15.6051 34.6983 15.519 34.4248 15.435C33.9374 16.9407 33.316 18.5185 32.576 20.131C33.3547 21.7887 34.0018 23.3907 34.5041 24.9076C34.5919 24.8798 34.6778 24.852 34.7618 24.8242C38.6428 23.5382 41.2062 21.5443 41.2062 20.1245ZM32.5926 28.2512C31.0098 28.5946 29.2893 28.8537 27.4745 29.0226C26.4356 30.5132 25.3792 31.8645 24.3236 33.0509C24.5576 33.2685 24.7956 33.4817 25.0374 33.6902C27.879 36.1356 30.6058 37.1822 31.7544 36.5173C32.2556 36.2272 32.6892 35.4176 32.9127 34.2121C33.1845 32.7472 33.1186 30.8663 32.7105 28.8055C32.6747 28.6243 32.6353 28.4396 32.5926 28.2512ZM20.0257 33.4724C20.1796 33.3375 20.3316 33.2004 20.4817 33.0613C19.3832 31.8527 18.297 30.5022 17.2538 29.0477C15.4312 28.8924 13.7224 28.6513 12.1592 28.3278C12.0876 28.6387 12.0219 28.9508 11.962 29.2639C11.2627 32.947 11.7178 35.8321 12.8674 36.495C13.3689 36.7842 14.287 36.7556 15.443 36.3474C16.8476 35.8514 18.444 34.855 20.0257 33.4724ZM10.2311 25.0046C10.7333 23.4376 11.3662 21.8099 12.1118 20.1687C11.3767 18.5531 10.7532 16.9523 10.2567 15.4064C9.91501 15.5095 9.5844 15.6167 9.26576 15.7277C5.72581 16.9619 3.45399 18.7973 3.45399 20.1245C3.45399 20.7035 3.93741 21.4845 4.86863 22.2818C6.00001 23.2507 7.66075 24.1359 9.649 24.8155C9.84215 24.8813 10.0362 24.9443 10.2311 25.0046ZM20.1362 7.06753C17.0791 4.35305 14.0691 3.13347 12.8403 3.84485C11.7008 4.50454 11.2686 7.48444 12.0045 11.2452C12.0595 11.5247 12.119 11.8029 12.1832 12.0804C13.7644 11.7425 15.4592 11.4845 17.2207 11.3136C18.2543 9.86833 19.3302 8.52806 20.4218 7.32595C20.3272 7.23898 20.232 7.15282 20.1362 7.06753ZM30.9545 16.9465C31.2543 16.1973 31.5227 15.463 31.758 14.7487C31.0103 14.5896 30.2355 14.4497 29.4389 14.33C29.698 14.7522 29.9516 15.1776 30.1998 15.6062C30.4568 16.0499 30.7084 16.4967 30.9545 16.9465ZM20.8298 11.09C21.8384 11.0618 22.8475 11.062 23.8561 11.0907C23.3557 10.4553 22.8523 9.85433 22.3494 9.29204C21.8387 9.85957 21.331 10.4602 20.8298 11.09ZM14.4526 15.6195C14.7036 15.1841 14.9606 14.7527 15.2236 14.3249C14.4331 14.4418 13.6656 14.5778 12.927 14.7318C13.1623 15.4525 13.4274 16.1872 13.7206 16.9308C13.9585 16.4903 14.2025 16.0532 14.4526 15.6195ZM14.4602 24.7178C14.2084 24.2828 13.9627 23.8442 13.7232 23.4023C13.419 24.1724 13.1448 24.9316 12.9029 25.6741C13.6539 25.8249 14.4438 25.956 15.2679 26.0668C14.9921 25.6211 14.7227 25.1712 14.4602 24.7178ZM23.9141 29.2336C23.3877 29.2479 22.8594 29.2552 22.33 29.2552C21.8297 29.2552 21.3328 29.2495 20.8397 29.2381C21.3543 29.8854 21.8746 30.5014 22.3964 31.0812C22.9011 30.507 23.4079 29.8899 23.9141 29.2336ZM30.2073 24.7047C29.9515 25.1485 29.6903 25.5891 29.4239 26.0265C30.2619 25.9064 31.0687 25.7645 31.838 25.6018C31.5893 24.8645 31.3028 24.1026 30.9805 23.3205C30.7291 23.7854 30.4713 24.2469 30.2073 24.7047ZM27.8263 23.332C28.4289 22.2883 28.9962 21.2252 29.5273 20.1441C28.9909 19.0735 28.4219 18.0194 27.8208 16.983C27.2233 15.9497 26.5917 14.9364 25.927 13.945C24.7421 13.8602 23.5386 13.8172 22.33 13.8172C21.1252 13.8172 19.9231 13.8599 18.7389 13.944C18.0677 14.937 17.4323 15.9537 16.8337 16.9921C16.235 18.0304 15.6731 19.0895 15.1492 20.1674C15.6744 21.245 16.238 22.3034 16.8388 23.3408L16.9061 23.457C17.4898 24.4593 18.1077 25.4413 18.7587 26.4013C19.9165 26.4715 21.1103 26.507 22.3302 26.507C23.5347 26.5076 24.7389 26.4679 25.9406 26.3879C26.6001 25.3887 27.229 24.3696 27.8263 23.332ZM24.899 6.7627C24.6883 6.94647 24.4807 7.1336 24.276 7.32403C25.3481 8.51051 26.4155 9.85225 27.4529 11.3163C29.2185 11.4898 30.9142 11.7521 32.4983 12.0968C32.527 11.9692 32.5539 11.8443 32.5792 11.7217C33.4041 7.71755 32.9574 4.50077 31.7274 3.79136C30.5869 3.13367 27.7894 4.24746 24.899 6.7627ZM22.33 15.876C24.6763 15.876 26.5785 17.7782 26.5785 20.1245C26.5785 22.4709 24.6763 24.3731 22.33 24.3731C19.9836 24.3731 18.0815 22.4709 18.0815 20.1245C18.0815 17.7782 19.9836 15.876 22.33 15.876Z" fill="#00D8FF"/>
</g>
</g>
<defs>
<clipPath id="clip0_2_507">
<rect width="44.7" height="40" fill="white" transform="translate(-0.000366211 0.159912)"/>
</clipPath>
<clipPath id="clip1_2_507">
<rect width="44.7" height="39.9947" fill="white" transform="translate(-0.000366211 0.162598)"/>
</clipPath>
</defs>
</svg>
