<svg width="20" height="21" viewBox="0 0 20 21" fill="none" xmlns="http://www.w3.org/2000/svg">
<path fill-rule="evenodd" clip-rule="evenodd" d="M6.27867 16.827V8.13332H3.60366V16.827H6.27867ZM10.6428 16.827H7.95413C7.95413 16.827 7.9928 8.91313 7.95413 8.08085H10.6425L10.6232 9.2436C11.0091 8.63835 11.7042 7.74912 13.2876 7.74912C15.2188 7.74912 16.6667 9.01683 16.6667 11.7412V16.827H13.9736V11.8738C13.9736 10.6816 13.3075 10.0761 12.2453 10.0761C11.4345 10.0761 10.9516 10.6247 10.7395 11.1546C10.6619 11.3436 10.6428 11.6087 10.6428 11.8738V16.827ZM4.92958 6.68614C4.048 6.68614 3.33334 5.97148 3.33334 5.0899C3.33334 4.20832 4.048 3.49365 4.92958 3.49365C5.81116 3.49365 6.52582 4.20832 6.52582 5.0899C6.52582 5.97148 5.81116 6.68614 4.92958 6.68614Z" fill="black"/>
</svg>
