<svg width="20" height="21" viewBox="0 0 20 21" fill="none" xmlns="http://www.w3.org/2000/svg">
<path fill-rule="evenodd" clip-rule="evenodd" d="M17.02 5.7908C16.4865 6.03914 15.9121 6.20709 15.3095 6.28213C15.9248 5.89621 16.397 5.28429 16.6194 4.55535C16.0433 4.91267 15.4067 5.17263 14.7266 5.31199C14.1845 4.70543 13.4098 4.32666 12.5524 4.32666C10.9084 4.32666 9.57463 5.7247 9.57463 7.44879C9.57463 7.69356 9.6002 7.93118 9.65134 8.15987C7.17551 8.02945 4.98094 6.78774 3.51078 4.89659C3.25425 5.35933 3.10766 5.89621 3.10766 6.46793C3.10766 7.55063 3.63351 8.50648 4.43293 9.06659C3.94544 9.0514 3.48522 8.90936 3.08295 8.6771V8.71551C3.08295 10.2288 4.10992 11.491 5.47354 11.7769C5.22383 11.8502 4.96048 11.8868 4.68861 11.8868C4.49685 11.8868 4.30935 11.868 4.12782 11.8314C4.50708 13.0713 5.6065 13.9745 6.91046 13.9986C5.89115 14.8365 4.60594 15.3359 3.21079 15.3359C2.97045 15.3359 2.73267 15.3216 2.5 15.293C3.81845 16.1774 5.38491 16.6946 7.06642 16.6946C12.5465 16.6946 15.5422 11.9377 15.5422 7.81148C15.5422 7.6757 15.5396 7.53991 15.5345 7.40681C16.1166 6.9664 16.622 6.41702 17.02 5.7908Z" fill="black"/>
</svg>
